<?xml version="1.0" encoding="utf-8"?>
<svg xmlns="http://www.w3.org/2000/svg" fill="none" height="608" width="1056">
  <g clip-path="url(#a)">
    <path d="M0 0h1056v608H0z" fill="url(#b)"/>
    <path d="M1294.34 136.498c-119.68 94.604-266.9 173.743-435.592 208.328-197.418 40.467-346.849 57.428-536.446 0C194.958 306.254 47.828 213.759-84.685 193.521v589.294H1294.34z" fill="url(#c)" opacity=".5"/>
    <path clip-rule="evenodd" d="M1059.2 83.344A9472 9472 0 0 0 1240.58-35H1138.2C613.743 229.926 10.662-35 10.662-35H-125v72.9c122.619-14.856 247.994 7.78 365.049 38.63 36.25 9.555 72.162 19.923 108.069 30.29 80.039 23.109 160.051 46.21 243.717 60.267 121.199 20.363 254.635 20.006 362.577-25.527 38-16.035 71.618-37.106 104.788-58.216" fill="url(#d)" fill-rule="evenodd" opacity=".4"/>
    <ellipse cx="528.5" cy="713.5" fill="url(#e)" rx="938.5" ry="308.5"/>
    <path d="M718 440.778C702.138 484.473 570.238 526 408.981 526 247.725 526 117 499.809 117 467.5s130.725-58.499 291.981-58.499c161.257 0 309.019-.531 309.019 31.777" fill="#000C2A"/>
    <path d="M739.492 102.822s21.969 28.184-16.476 54.886c-30.868 21.44-19.616 50.087-13.971 60.551 4.266 7.912 5.765 17.079 3.851 25.849-4.574 21.016-24.326 37.424-32.241 45.324-3.238 3.241-6.443 6.532-8.294 10.722-3.746 8.473-10.341 26.259 4.896 39.558 31.475 27.479 18.254 59.198 18.254 59.198l8.108 3.822s20.988-45.023-9.17-71.042c-30.159-26.02 12.175-52.779 12.175-52.779 38.012-22.059 41.55-45.035 36.2-61.987-3.075-9.74-1.61-20.318 3.622-29.086 10.315-17.267 20.445-48.507-6.95-85.025z" fill="#F9DFFF"/>
    <path d="m706.807 175.137 7.949 14.15c4.871-4.6 16.663-16.445 24.866-27.025 6.11-7.881 3.809-15.958.375-21.279-3.508 5.458-8.915 11.124-16.979 16.725-7.89 5.48-13.028 11.431-16.211 17.429" fill="#E88AFF"/>
    <path d="M730.193 172.518c-2.947 4.953-5.077 10.337-5.664 16.097-1.009 10.045 1.762 19.903 2.587 29.851.411 4.87.309 9.794-1.025 14.522-1.745 6.2-5.561 11.604-9.515 16.603-1.011 1.279-2.045 2.535-3.074 3.806-1.15 1.406.987 3.24 2.136 1.834 4.212-5.138 8.49-10.393 11.278-16.474 2.343-5.09 3.272-10.519 3.212-16.086-.107-10.175-3.159-20.085-3.032-30.275.07-5.506 1.425-10.733 3.928-15.635 2.841-5.546 6.729-10.453 10.333-15.503 3.471-4.865 6.791-9.936 8.749-15.627 1.662-4.846 2.466-9.914 2.434-15.037a47 47 0 0 0-.332-5.276c-1.857-4.783-4.299-9.717-7.439-14.754 2.786 5.357 4.436 11.322 4.85 17.339a43.2 43.2 0 0 1-1.443 14.496c-1.485 5.359-4.255 10.226-7.39 14.784-3.524 5.123-7.436 9.983-10.625 15.332z" fill="#1433D6"/>
    <path d="M745.71 120.965c-.474-10.773-6.218-18.142-6.218-18.142l.004-.01c27.395 36.518 17.265 67.758 6.95 85.025-5.232 8.768-6.697 19.347-3.622 29.087 5.35 16.951 1.811 39.927-36.2 61.986 0 0-42.334 26.759-12.175 52.779 30.158 26.02 9.17 71.042 9.17 71.042l-2.774-1.307c3.991-10.325 15.228-46.088-10.363-68.167-30.159-26.02 12.175-52.78 12.175-52.78 38.011-22.058 41.55-45.035 36.2-61.986-3.075-9.74-1.61-20.318 3.622-29.086 8.715-14.588 17.297-39.15 3.231-68.441" fill="#fff"/>
    <path d="M663.554 390.894c7.036-10.646 20.903-14.425 33.647-15.101s25.811.868 38.079-2.654c12.267-3.522 23.88-14.294 22.691-27.003-.776-8.185-6.481-14.892-11.055-21.729-4.575-6.837-8.227-15.699-4.589-23.075 2.146-4.343 6.456-7.232 10.886-9.2 9.07-4.026 19.136-5.009 28.974-6.359 9.832-1.342 19.924-3.229 28.197-8.722 8.265-5.486 14.296-15.467 12.345-25.197-1.553-7.743-7.671-16.087-3.167-22.582 2.395-3.449 6.882-4.564 10.678-6.37 7.076-3.366 12.521-9.99 14.44-17.586 1.444-5.703 1.039-11.964 3.881-17.114 3.089-5.6 9.3-8.61 15.22-11.022 11.058-4.504 22.535-8.186 32.858-14.184 10.324-5.999 19.638-14.785 23.308-26.146 0 0-11.626 25.711-66.986 11.916-6.859-1.712-15.701.522-18.761 6.897-2.197 4.595-.317 10.159-1.629 15.088-2.465 9.24-14.156 11.922-23.711 12.223s-20.933.885-25.871 9.066c-2.158 3.582-2.536 7.946-2.646 12.134-.422 15.707 1.843 32.346-5.217 46.381-7.7 15.331-24.618 23.587-40.949 28.85-4.622 1.497-9.502 2.95-12.929 6.397-6.405 6.443-5.325 17.06-2.797 25.776 2.522 8.723 6.056 17.995 3.138 26.597-2.365 6.949-8.594 11.931-15.177 15.19s-13.757 5.187-20.36 8.39a58.5 58.5 0 0 0-20.066 16.005l-6.181 9.92 3.769 3.19z" fill="#F9DFFF"/>
    <path d="m663.566 390.869-.017.026.02-.023zm81.163-70.033a49 49 0 0 0 2.182 3.572 202 202 0 0 0 2.402 3.485c3.97 5.676 8.009 11.451 8.653 18.245 1.189 12.708-10.424 23.481-22.691 27.003-8.53 2.448-17.447 2.448-26.373 2.448-3.91 0-7.823 0-11.705.206-12.734.675-26.589 4.448-33.631 15.074l-3.766-3.187 6.181-9.92a58.5 58.5 0 0 1 20.067-16.005c3.232-1.568 6.601-2.83 9.97-4.093 3.514-1.316 7.028-2.633 10.389-4.297 6.583-3.259 12.812-8.241 15.177-15.191 2.57-7.575.136-15.669-2.203-23.45a292 292 0 0 1-.934-3.147c-2.529-8.715-3.609-19.332 2.796-25.775 3.259-3.278 7.832-4.753 12.247-6.177l.683-.22c16.331-5.263 33.248-13.519 40.949-28.851 5.481-10.897 5.341-23.364 5.202-35.745-.04-3.565-.08-7.123.015-10.635.109-4.189.487-8.552 2.646-12.134 4.937-8.181 16.315-8.765 25.87-9.067s21.246-2.982 23.711-12.223c.577-2.165.537-4.452.498-6.727-.051-2.903-.101-5.784 1.132-8.36 3.06-6.376 11.902-8.609 18.76-6.898l.613.152c-7.155 1.3-14.069 4.823-12.333 11.306 3.764 14.058-.174 31.149-11.461 35.667-2.242.898-4.733 1.654-7.306 2.436-10.385 3.155-22.119 6.72-24.279 21.592l-.217 1.497c-2.561 17.711-4.244 29.349-20.638 41.155-3.462 2.493-7.435 5.067-11.529 7.72-15.837 10.262-33.486 21.697-30.35 34.13 1.499 5.942 5.178 11.632 9.273 16.414" fill="#E88AFF"/>
    <path d="M733.774 298.881c-.421 1.765-2.286 12.973 13.071 25.161-23.133-28.468.435-39.725 8.158-44.315 8.144-4.851 16.356-9.416 23.645-15.54 6.936-5.833 13.133-12.854 16.638-21.309 3.366-8.116 3.109-16.868 5.244-25.274.978-3.883 2.696-7.61 5.679-10.373 2.746-2.547 6.279-4.026 9.78-5.197 7.157-2.384 15.092-3.641 20.862-8.89 6.946-6.321 8.459-16.259 14.617-23.14 5.799-6.486 14.935-7.974 23.12-9.113 8.939-1.239 17.745-2.764 26.124-6.29 5.61-2.364 11.01-5.525 15.49-9.678 1.557-2.521 2.838-5.208 3.749-8.06 0 0-2.61 5.763-11.232 10.37-9.138 6.009-20.652 8.974-31.217 10.42-8.33 1.137-17.367 2.079-24.396 7.134-7.743 5.566-9.682 15.024-14.875 22.493-2.35 3.379-5.42 5.881-9.177 7.545-3.534 1.559-7.291 2.527-10.98 3.619-3.632 1.073-7.261 2.283-10.504 4.276-3.326 2.043-5.961 4.967-7.69 8.469-3.758 7.596-3.321 16.42-5.205 24.529-2.103 9.051-7.558 16.781-14.19 23.112-6.855 6.545-14.937 11.623-23.124 16.303-7.931 4.534-16.539 9.489-21.199 17.691-1.085 1.9-1.844 3.955-2.351 6.076z" fill="#1433D6"/>
    <path d="M839.632 150.248c1.7-.028 3.39.156 4.974.552 23.596 5.88 39.247 4.582 49.439 1.158-9.843 1.599-23.175 1.271-41.086-3.193-4.3-1.073-9.381-.595-13.327 1.483m67.527-2.242c-4.654 7.043-11.507 12.743-18.875 17.024-5.155 2.995-9.038 4.298-13.849 5.911-2.993 1.004-6.346 2.128-10.588 3.856-2.287.931-5.076 3.227-7.65 6.017 2.396-1.432 5.016-2.589 7.582-3.634 2.905-1.184 5.838-2.31 8.772-3.437 8.236-3.162 16.475-6.325 24.086-10.748 10.324-5.998 19.638-14.784 23.308-26.145 0 0-2.917 6.45-12.786 11.156m-87.63 94.098c-.667 4.409-.398 8.857.41 12.882 1.785 8.903-7.281 19.258-15.167 25.157a40 40 0 0 0 5.61-3.093c8.266-5.485 14.296-15.466 12.345-25.196-.472-2.355-1.367-4.765-2.256-7.161-.321-.866-.642-1.73-.942-2.589" fill="#fff"/>
    <path d="M814.659 262.831c1.403.036 2.62-3.03 2.718-6.848s-.96-6.941-2.363-6.977c-1.402-.036-2.619 3.029-2.717 6.847s.96 6.942 2.362 6.978" fill="url(#f)"/>
    <path d="M747.724 359.339c2.132.385 4.559-3.166 5.42-7.932s-.17-8.942-2.303-9.327-4.559 3.166-5.419 7.932c-.861 4.766.169 8.941 2.302 9.327" fill="url(#g)"/>
    <path d="M528.366 537.478c128.332 0 232.366-104.034 232.366-232.367S656.698 72.744 528.366 72.744 296 176.778 296 305.11s104.034 232.367 232.366 232.367" fill="url(#h)"/>
    <path d="M528.366 537.478c128.332 0 232.366-104.034 232.366-232.367S656.698 72.744 528.366 72.744 296 176.778 296 305.11s104.034 232.367 232.366 232.367" fill="url(#i)"/>
    <path clip-rule="evenodd" d="M682.066 479.386C656.343 487.579 628.938 492 600.5 492 452.212 492 332 371.788 332 223.5c0-16.952 1.571-33.537 4.575-49.617C310.977 211.224 296 256.418 296 305.111c0 128.333 104.034 232.367 232.366 232.367 58.931 0 112.737-21.937 153.7-58.092" fill="#000C2A" fill-rule="evenodd"/>
    <path d="M296.16 312.592c3.98 124.901 106.352 224.885 232.207 224.885s228.226-99.984 232.207-224.885c-.239-8.756-.796-17.354-1.911-25.792-15.204 113.597-112.561 224.545-230.296 224.545S313.355 400.397 298.15 286.8c-1.114 8.438-1.751 17.115-1.99 25.792" fill="url(#j)"/>
    <path d="M360.203 144.753c41.702-39.776 98.177-64.2 160.356-64.2 128.333 0 232.366 104.035 232.366 232.368 0 62.18-24.423 118.656-64.2 160.358 44.366-42.318 72.01-102.015 72.01-168.168 0-128.332-104.034-232.367-232.366-232.367-66.152 0-125.848 27.644-168.166 72.009" fill="#fff"/>
    <path clip-rule="evenodd" d="M619.222 178.97c.785-1.171 1.309-2.761 1.896-5.757.145-.737.157-.779.185-.628.625 3.363 1.191 5.158 2.012 6.384 1.192 1.782 2.916 2.621 7.106 3.462.552.11 1.013.21 1.013.21s-.229.053-.519.107c-.663.123-1.826.377-2.476.541-1.52.382-2.665.842-3.54 1.421-.529.35-1.197 1.015-1.545 1.539-.871 1.309-1.462 3.181-2.068 6.545-.007.04-.057-.162-.111-.448-.874-4.592-1.731-6.429-3.574-7.663-1.228-.822-3.034-1.391-6.384-2.012-.154-.028-.132-.035.448-.148 3.127-.61 4.752-1.139 5.937-1.933a5.4 5.4 0 0 0 1.62-1.62m-39.018 15.119c1.413-2.109 2.357-4.974 3.416-10.37.26-1.328.282-1.402.333-1.131 1.126 6.057 2.144 9.29 3.622 11.499 2.149 3.209 5.253 4.721 12.801 6.235.995.199 1.824.379 1.824.379s-.412.095-.935.193a90 90 0 0 0-4.46.973c-2.737.689-4.8 1.518-6.376 2.561-.953.631-2.156 1.829-2.783 2.772-1.568 2.357-2.633 5.729-3.724 11.789-.012.071-.103-.292-.201-.808-1.573-8.27-3.117-11.58-6.437-13.803-2.212-1.48-5.465-2.505-11.499-3.623-.276-.051-.237-.064.808-.267 5.631-1.098 8.558-2.05 10.693-3.482 1.258-.843 2.074-1.659 2.918-2.917m24.166 34.87c2.499-3.727 4.167-8.791 6.039-18.33.46-2.347.499-2.478.588-1.998 1.991 10.706 3.791 16.421 6.404 20.324 3.798 5.674 9.285 8.346 22.627 11.022 1.758.353 3.208.654 3.224.67s-.728.169-1.654.341c-2.11.391-5.813 1.2-7.882 1.721-4.838 1.218-8.486 2.683-11.271 4.526-1.685 1.115-3.811 3.233-4.92 4.9-2.771 4.166-4.653 10.126-6.581 20.839-.023.125-.183-.517-.356-1.427-2.781-14.62-5.509-20.47-11.379-24.399-3.91-2.618-9.659-4.429-20.325-6.404-.489-.091-.42-.114 1.427-.474 9.955-1.939 15.128-3.623 18.902-6.153 2.224-1.492 3.666-2.933 5.157-5.158m35.852-29.092c-.762 3.886-1.441 5.948-2.459 7.466-.607.906-1.195 1.493-2.101 2.101-1.536 1.03-3.644 1.716-7.698 2.506-.752.147-.78.156-.581.193 4.344.804 6.685 1.542 8.278 2.608 2.39 1.6 3.502 3.983 4.634 9.937.071.371.136.633.145.582.786-4.363 1.552-6.791 2.681-8.488.451-.679 1.317-1.541 2.004-1.995 1.134-.751 2.62-1.348 4.59-1.844a66 66 0 0 1 3.211-.701c.376-.07.673-.139.673-.139s-.597-.129-1.313-.272c-5.434-1.09-7.669-2.179-9.216-4.489-1.064-1.59-1.797-3.918-2.608-8.279-.036-.195-.052-.141-.24.814m-65.56 51.301c-12.466-5.362-7.733-21.531 3.76-21.914l-.038-.053a106 106 0 0 0-12.245-3.057c-3.256-.61-4.555-.844-5.031-.884l-.022-.018c-25.255-2.491-42.348 1.196-55.049 7.123a8 8 0 0 0-1.041.573c-6.027 2.621-11.674 6.009-16.742 10.081-10.913 8.772-17.296 19.207-20.204 33.034-.981 4.664-1.218 13.047-.489 17.247.774 4.451 2.265 8.608 4.146 11.562 2.684 4.214 3.119 5.153 2.888 6.228-.482 2.236-2.472 3.579-4.657 3.142-2.592-.518-7.408-8.817-9.213-15.877-1.942-7.593-1.743-17.815.519-26.621.452-1.76.893-3.523.98-3.919l.159-.718-1.797.794c-9.151 4.047-16.067 9.094-21.708 15.841-14.698 17.583-15.906 41.402-3.053 60.251 2.508 3.678 8.498 9.899 11.541 11.986 4.591 3.147 9.725 5.518 17.022 7.858 5.845 1.875 8.568 2.294 14.719 2.264 4.821-.024 5.803-.124 8.636-.877 14.419-3.835 22.875-15.754 22.88-32.251.002-4.842-1.246-9.849-5.159-20.697-2.167-6.009-3.602-11.22-4.143-15.042-.524-3.702-.22-10.424.611-13.547 2.599-9.756 9.547-18.056 18.708-22.349 3.953-1.852 5.377-2.168 6.775-1.501 2.178 1.038 2.998 3.575 1.795 5.549-.478.783-1.192 1.222-3.279 2.018-7.796 2.973-13.79 9.292-16.256 17.139-.513 1.63-.749 3.371-.868 6.399-.242 6.114.302 8.425 5.603 23.838 1.059 3.08 2.323 7.327 2.809 9.439.782 3.396.886 4.487.895 9.439.008 4.139-.139 6.348-.563 8.468-1.259 6.295-3.725 12.171-6.912 16.47-1.969 2.655-6.636 7.184-8.935 8.668l-1.72 1.111 22.678.171c24.609.186 24.875.204 30.844 2.09 7.964 2.516 11.033 4.434 25.778 16.114 8.294 6.57 12.462 9.674 13.173 9.812 2.504.486 4.832-.892 5.486-3.247.214-.774.351-4.696.352-10.135l.002-8.873-.72-.158c-6.869-1.506-9.836-2.528-14.986-5.162-4.506-2.305-8.108-4.872-12.053-8.606a4 4 0 0 1-.353-.271c-1.417-1.224-2.813-2.7-4.173-4.356-.75-.859-1.349-1.629-1.805-2.328-3.296-4.483-6.332-9.878-8.884-15.065-3.32-6.748-6.036-13.594-7.588-18.496-1.28-2.61-1.645-7.601-.806-11.563 2.129-10.043 12.988-17.075 23.369-15.129 5.681 1.064 10.478 3.52 19.6 10.035 10.779 7.699 17.103 10.85 24.512 12.214 2.808.516 6.824.248 9.324-.623 3.862-1.345 7.63-4.991 9.744-9.429 1.624-3.411 2.296-6.589 2.487-11.763.227-6.147-.254-9.883-1.883-14.633-2.082-6.073-5.103-11.842-8.92-17.197l-3.36 14.208c-.582 2.763-3.587 8.289-10.956 8.289s-10.264-5.526-10.791-8.289c-3.197-19.996-6.543-20.59-14.689-22.037-2.893-.513-6.392-1.135-10.704-2.77m-4.57 97.479c.316.349.652.756 1.019 1.228 5.224 6.718 13.378 12.406 21.65 15.102 10.562 3.442 21.242 3.3 30.325-.403 18.029-7.35 28.074-28.022 23.037-47.404-.81-3.118-2.571-7.557-3.803-9.592l-.771-1.273-.824 1.864c-2.106 4.76-7.061 10.227-11.265 12.427-4.033 2.111-6.402 2.655-11.485 2.639-3.829-.011-4.985-.143-7.956-.906-8.136-2.088-13.531-4.986-26.601-14.289-5.543-3.946-10.559-6.525-14.124-7.261-2.434-.504-2.752-.503-5.096.005-7.471 1.622-11.508 8.278-9.527 15.711q.113.425.19.8c1.376 4.409 3.967 11.041 7.251 17.715 2.475 5.03 5.219 9.827 7.98 13.637" fill="url(#k)" fill-rule="evenodd"/>
    <path d="M724.946 279.658c14.329-5.652 18.468-29.135 9.234-52.46-9.154-23.403-28.259-37.732-42.509-32.08s-18.468 29.135-9.234 52.459c9.155 23.404 28.26 37.733 42.509 32.081" fill="url(#l)"/>
    <path d="M697.797 324.397c7.165-2.786 9.235-14.568 4.617-26.27s-14.09-18.866-21.254-16.08-9.234 14.568-4.617 26.27 14.09 18.866 21.254 16.08" fill="url(#m)"/>
    <path d="M511.869 95.055c-54.969 5.915-106.885 31.266-145.36 72.509-2.221 67.922 27.737 201.419 156.037 263.595L644.17 313.622S522.692 250.329 511.797 95.02z" fill="url(#n)"/>
    <path d="m711.6 199.408-15.711-6.033-15.712-6.034 14.469 8.586 14.469 8.586a31.42 31.42 0 0 1 13.681 16.738 31.44 31.44 0 0 1-.343 21.615l-6.034 15.71-6.034 15.71 8.587-14.468 8.587-14.467a31.43 31.43 0 0 1 16.74-13.679 31.46 31.46 0 0 1 21.618.344l15.712 6.033 15.712 6.033-14.469-8.586-14.47-8.586a31.43 31.43 0 0 1-13.68-16.737 31.45 31.45 0 0 1 .343-21.616l6.034-15.71 6.034-15.709-8.587 14.467-8.587 14.467a31.43 31.43 0 0 1-16.74 13.679 31.45 31.45 0 0 1-21.619-.343m83.881-30.623a13.55 13.55 0 0 1-5.236 16.708 13.6 13.6 0 0 1 9.309-.441 13.55 13.55 0 0 1 7.4 5.678 13.6 13.6 0 0 1-.441-9.308 13.55 13.55 0 0 1 5.677-7.399 13.6 13.6 0 0 1-9.309.44 13.55 13.55 0 0 1-7.4-5.678" fill="#fff"/>
    <path clip-rule="evenodd" d="M565.148 534.583a234 234 0 0 1-39.82 2.876c2.447-12.341 8.815-15.22 10.317-15.899.181-.082.291-.132.315-.163 28.387-36.385 56.853-15.377 29.188 13.186" fill="#000C2A" fill-rule="evenodd"/>
    <path d="M531.418 535.004c-1.953 4.688-6.841 11.768-18.361 21.575 0 0 0-13.439 4.77-20.613a18.34 18.34 0 0 1 7.988-6.395 4.19 4.19 0 0 1 4.648.811 4.2 4.2 0 0 1 .955 4.622m-11.195-21.861c-4.487 2.397-12.738 4.792-27.862 5.114 0 0 8.494-10.422 16.718-12.974a18.3 18.3 0 0 1 10.23.1 4.2 4.2 0 0 1 2.098 1.306 4.2 4.2 0 0 1-1.184 6.454m-37.48 29.584c-10.817 12.256-37.111 5.043-37.111 5.043l23.251-9.469-20.717-15.62s45.394 7.791 34.577 20.046" fill="#000C2A"/>
    <path d="M528.064 497.645c-24.915 31.935-49.029 40.19-57.972 40.326 10.237 6.847 52.38 4.183 76.772-13.733 42.757-31.406 12.343-66.512-18.8-26.593" fill="url(#o)"/>
    <path d="M252.767 395.584c-13.433-1.453-27.198-.382-40.357-3.473-6.835-1.595-13.667-4.368-18.442-9.515s-6.997-13.09-3.942-19.425c2.049-4.208 6.158-7.178 10.612-8.569s9.279-1.345 13.895-.657c4.22.623 8.347 1.783 12.364 3.237 4.778 1.725 9.348 3.954 13.732 6.518 10.212 5.985 31.538 19.735 44.53 37.009l-2.45-4.561-4.309-8.572c-5.66-11.473-10.912-23.104-15.711-34.954a11 11 0 0 0-3.636-4.754c-13.575-10.296-29.258-17.305-45.161-22.522-17.909-5.862-37.233-10.178-51.256-23.513-4.446-4.25-8.363-9.637-9.084-15.664-1.149-9.562 6.339-17.997 15.226-20.145 8.886-2.148 18.552.707 27.117 5.023 15.47 7.787 28.637 20.185 39.508 34.098 8.398 10.725 15.519 22.395 22.213 34.281a512 512 0 0 1-7.86-22.731 484 484 0 0 1-10.143-36.685c-1.733-7.512-3.301-15.027-4.609-22.616-1.549-9.051-4.21-17.898-7.866-26.344-4.81-11.164-9.211-22.484-12.36-34.144-4.611-16.949-6.583-34.737-3.444-51.518 1.751-9.272 5.334-18.552 12.496-24.134s18.56-6.275 25.57.461c4.447 4.25 6.426 10.567 7.125 16.626 2.227 19.028-6.118 36.68-12.305 54.156-3.194 9.017-5.838 18.344-7.513 27.876-2.182 12.444-1.897 25.203.431 37.615 1.373 7.195 2.99 14.372 4.738 21.525a486 486 0 0 0 3.2 12.088c-2.342-25.933 6.479-55.334 11.07-68.521 1.879-5.436 4.203-10.68 7.024-15.604 2.39-4.134 5.095-8.051 8.283-11.564 3.485-3.842 7.574-7.219 12.42-9.01s10.561-1.825 15.374.687c7.237 3.794 11.127 12.771 10.784 20.91-.348 8.112-4.211 15.417-8.896 21.668-9.051 12.006-21.648 20.501-32.151 31.157-8.006 8.147-13.216 15.425-16.587 21.38-4.3 7.605-5.182 16.69-2.56 25.024a456 456 0 0 0 2.642 8.139c4.004 11.996 8.471 23.825 13.351 35.523 4.903 11.667 10.294 23.162 16.058 34.452l4.389 8.421 4.593 8.329c.297.575.62 1.146.944 1.716-6.159-14.941-14.088-36.401-15.321-50.601-1.67-18.829.48-38.468 10.426-55.154 2.747-4.582 6.199-9.047 11.081-11.831 4.883-2.783 11.467-3.606 16.393-.922 4.257 2.313 6.635 6.777 8.042 10.872 1.518 4.403 2.062 9.012 1.972 13.6a64.2 64.2 0 0 1-4.275 21.643c-3.816 9.951-10.041 19.003-15.777 28.184-.065.095-.104.184-.169.278-7.503 11.941-10.995 25.447-10.24 38.832.409 7.015 2.713 13.765 6.504 19.667l.015.08 5.088 8.047c1.694 2.673 3.484 5.274 5.232 7.938l2.64 3.951c.871 1.318 1.817 2.596 2.737 3.878l5.499 7.753c14.991 20.412 28.79 40.274 21.193 35.29 0 0-20.004-15.798-32.723-16.342-1.515-.051-2.909-.042-4.174.08-10.321 1.042-20.536 3.407-30.999 2.778-5.424-.32-11.076-1.584-15.611-4.969-4.54-3.411-7.659-9.383-6.51-14.767.766-3.59 3.3-6.49 6.407-8.209s6.719-2.326 10.343-2.415c3.297-.084 6.618.266 9.899.842 3.908.707 7.755 1.836 11.519 3.254 7.648 2.897 22.635 9.239 34.947 18.618a417 417 0 0 1-8.274-11.241l-5.448-7.926c-.898-1.313-1.849-2.617-2.698-3.967l-2.602-4.041c-1.725-2.695-3.499-5.353-5.177-8.085l-4.98-8.203c-1.704-2.727-3.205-5.545-4.835-8.312l-.009-.053a25.37 25.37 0 0 0-11.56-10.502c-5.936-2.663-14.821-5.442-27.585-6.826z" fill="#E88AFF"/>
    <path d="M190.276 362.681c2.121-3.949 6.082-6.743 10.361-8.079 4.453-1.391 9.28-1.344 13.895-.657 4.22.623 8.347 1.783 12.364 3.237 4.778 1.725 9.348 3.954 13.732 6.518a212 212 0 0 1 10.733 6.739c-9.315-3.807-28.35-11.585-37.529-12.952-4.616-.687-11.708-.445-16.162.946-2.724.851-5.32 2.293-7.394 4.248m114.579 89.342c-10.392-2.128-25.634-4.892-28.336-5.381-3.281-.576-6.602-.926-9.899-.842-3.624.089-7.237.696-10.343 2.415-.904.5-1.759 1.1-2.536 1.787 1.184-2.394 3.183-4.335 5.502-5.618 3.107-1.718 6.719-2.326 10.344-2.415 3.297-.084 6.618.266 9.899.842 3.907.708 7.755 1.837 11.519 3.255 3.437 1.302 8.357 3.3 13.85 5.957m17.143-125.719c-.267-7.585-1.279-22.172-2.53-25.801-1.408-4.094-3.786-8.559-8.042-10.872-4.926-2.684-11.51-1.861-16.393.923-2.461 1.403-4.558 3.232-6.385 5.289 2.448-3.583 5.441-6.891 9.352-9.12 4.883-2.783 11.466-3.606 16.392-.923 4.257 2.314 6.635 6.778 8.042 10.873 1.519 4.403 2.062 9.011 1.972 13.599a64 64 0 0 1-2.408 16.032m-22.979-93.467c4.294-5.988 7.718-12.892 8.045-20.507.343-8.138-3.547-17.116-10.785-20.909-4.812-2.513-10.528-2.479-15.373-.688-4.846 1.792-8.935 5.169-12.42 9.01a55 55 0 0 0-1.355 1.551 59 59 0 0 1 4.322-5.382c3.484-3.841 7.573-7.218 12.419-9.009s10.561-1.826 15.374.687c7.237 3.793 11.127 12.771 10.784 20.909-.348 8.112-4.21 15.417-8.896 21.668a71 71 0 0 1-2.115 2.67M238.7 210.866c1.515-6.239 3.395-12.372 5.519-18.368.982-2.774 2.019-5.553 3.059-8.341 5.511-14.774 11.12-29.808 9.246-45.816-.699-6.058-2.678-12.376-7.124-16.625-7.011-6.736-18.408-6.044-25.57-.462-2.376 1.852-4.358 4.111-6.01 6.641a25 25 0 0 1 3.043-2.81c7.162-5.583 18.56-6.275 25.57.462 4.447 4.249 6.426 10.566 7.125 16.625 1.873 16.007-3.735 31.041-9.247 45.816a540 540 0 0 0-3.059 8.341c-1.668 4.711-2.193 9.591-2.552 14.537m5.639 106.679c-12.123-14.126-36.997-35.411-51.411-42.667-8.565-4.316-18.231-7.171-27.117-5.023-3.732.902-7.217 2.913-9.92 5.65 2.767-4.67 7.577-8.197 12.886-9.481 8.887-2.148 18.552.707 27.118 5.023 15.469 7.787 28.636 20.185 39.507 34.098 3.143 4.014 6.107 8.16 8.937 12.4" fill="#fff"/>
    <path d="M227.37 145.315c1.104-6.796-.333-12.684-3.21-13.151s-6.105 4.663-7.209 11.459.333 12.685 3.21 13.152 6.105-4.663 7.209-11.46m53.762 60.877c3.73-4.225 5.298-8.934 3.503-10.519-1.795-1.584-6.273.556-10.003 4.781-3.73 4.226-5.299 8.935-3.504 10.52s6.274-.556 10.004-4.782m-77.183 79.019c.942-2.201-2.494-5.783-7.675-8.002-5.182-2.218-10.146-2.232-11.088-.031-.943 2.201 2.494 5.783 7.675 8.002 5.181 2.218 10.145 2.232 11.088.031m44.57 93.099c1.119-2.117-2.088-6.008-7.163-8.691-5.074-2.683-10.095-3.142-11.214-1.026-1.119 2.117 2.087 6.008 7.161 8.691 5.075 2.683 10.096 3.142 11.216 1.026m34.87 71.873c.13-1.765-3.553-3.473-8.224-3.816s-8.565.81-8.694 2.575c-.13 1.764 3.553 3.474 8.224 3.817s8.565-.811 8.694-2.576" fill="#F9DFFF"/>
    <path d="M415.892 481.888a2.7 2.7 0 0 0-1.375-1.136l-35.653-13.205a2.7 2.7 0 0 1-1.292-1.007l-12.314-17.927a2.71 2.71 0 0 0-3.576-.82l-36.304 20.698q-.185.106-.385.181l-53.228 20.079a2.71 2.71 0 0 0-1.473 3.736l1.85 3.744a2.71 2.71 0 0 1-1.589 3.777l-37.45 12.227c-2.254.735-2.543 3.805-.467 4.949l71.042 39.145a2.72 2.72 0 0 0 1.797.292l54.028-9.914q.324-.06.654-.04l72.103 4.388c.467.029.934-.064 1.354-.27l29.695-14.506c1.927-.941 2.049-3.64.216-4.752l-27.161-16.472a2.7 2.7 0 0 1-.912-.912z" fill="#000C2A"/>
    <path d="M418.591 475.12a2.7 2.7 0 0 0-1.376-1.137l-33.209-12.315a2.7 2.7 0 0 1-1.292-1.007l-12.07-17.588a2.71 2.71 0 0 0-2.005-1.167l-42.638-3.623a2.7 2.7 0 0 0-2.318.974l-21.939 26.553c-.237.287-.53.522-.862.69l-31.689 16.095a2.71 2.71 0 0 0-1.468 2.136l-1.506 14.509a2.7 2.7 0 0 1-1.044 1.869l-9.983 7.672c-1.557 1.197-1.364 3.601.363 4.534l58.089 31.367c.543.293 1.17.392 1.777.281l50.421-9.258q.325-.06.654-.04l67.472 4.114c.368.023.737-.03 1.083-.155l22.806-8.218c1.882-.679 2.406-3.092.974-4.49l-21.422-20.902a2.7 2.7 0 0 1-.425-.536z" fill="url(#p)"/>
    <path d="M92.751 129.389c.802 1.886-.026-2.048 0 0 17.199 2.784 35.891 6.811 51.51 18.97-7.409-5.768-11.097-13.456-11.295-19.278 34.661 10.098 23.069 25.842 23.069 25.842 54.925 60.304 7.882 67.923-18.859 29.797-13.213 1.772-25.255-17.248-25.255-17.248 5.578-.882 15.154 1.004 20.332 8.383C121.946 155.1 105.199 141 90.62 134.607c-6.398 7.282-26.976-.17-26.976-.17 6.005-3.22 12.593-7.9 23.56-6.006-9.75-8.936-18.696-21.608-18.696-21.608s24.01 4.146 24.243 22.566" fill="#000C2A"/>
    <path d="M972.932 198.669c-1.822.325 1.809.392 0 0-5.93 14.579-13.257 30.221-27.12 41.512 6.577-5.356 14.091-7.048 19.257-6.044-15.902 28.472-27.418 15.082-27.418 15.082-64.202 36.157-61.393-6.8-22.418-22.631 1.113-11.99 20.293-18.745 20.293-18.745-.351 5.089-3.948 13.138-11.493 16.205 20.358-4.876 36.159-16.768 44.736-28.31-5.117-7.106 5.607-23.716 5.607-23.716 1.62 5.938 4.407 12.685.522 21.957 9.84-6.776 22.806-12.088 22.806-12.088s-8.507 20.299-24.772 16.778" fill="#F9DFFF"/>
    <path d="M1260.15 760.478 973.307-58.197l-14.712-6.41 25.002 705.736z" fill="url(#q)"/>
    <path d="m908.22 604.716 34.177-673.53-42.116-18.351-187.385 607.932z" fill="url(#r)"/>
    <path d="M702.46-176.211 255.019 322.587 81 247.847 624.913-210z" fill="url(#s)"/>
    <path d="m492.163 424.588 308.532-557.996-29.674-12.929-389.726 522.231z" fill="url(#t)"/>
    <path d="M859.805 320s-3.859 25.135-41.093 31.61-56.592 11.59-66.381 36.878 10.52 61.656 10.52 61.656-4.152-39.193 11.607-57.441c20.02-23.181 52.154-16.348 70.596-29.503 19.786-14.114 15.296-33.929 14.751-43.2" fill="#F9DFFF"/>
    <path d="M829.306 370.035c3.696-1.888 7.462-4.044 11.374-6.835 14.634-10.439 15.989-23.996 15.481-34.099 3.041-5.162 3.646-9.101 3.646-9.101.061 1.026.169 2.18.288 3.442.954 10.144 2.559 27.205-15.039 39.758-4.547 3.244-9.926 5.272-15.75 6.835" fill="#fff"/>
    <path d="M761.814 454.125s13.357-36.337 45.448-23.794c32.091 12.542 40.022-7.073 40.022-28.145-8.843 12.281-15.406 23.791-48.227 10.093-32.822-13.697-37.243 41.824-37.243 41.824z" fill="#F9DFFF"/>
    <path d="M822.709 434.186c19.311 1.372 24.576-14.83 24.576-32q-.498.693-.988 1.379c-1.213 1.698-2.403 3.363-3.647 4.929-1.146 13.272-6.318 24.627-19.941 25.692m2.502-15.747c-6.292.362-14.595-1.336-26.153-6.16-6.414-2.677-11.744-2.71-16.167-1.031 3.452-.331 7.363.277 11.79 2.125 14.46 6.035 23.823 6.965 30.53 5.066" fill="#fff"/>
    <path d="M888.959 465.457c8.168 0 15.844-2.676 15.844-5.395s-7.676-4.451-15.844-4.451-14.789 2.204-14.789 4.923 6.621 4.923 14.789 4.923" fill="#000C2A"/>
    <path d="M892.462 462.619c6.925 0 12.538-1.746 12.538-3.899s-5.613-3.9-12.538-3.9-12.537 1.746-12.537 3.9 5.613 3.899 12.537 3.899" fill="#F9DFFF"/>
    <path d="M830.234 483.392s-6.159-40.23-86.701-41.023c-41.908-.407-105.975 37.855-87.155 55.229s188.079 27.368 174.95-11.471z" fill="#000C2A"/>
    <path d="M830.425 483.54s-8.187-46.839-86.241-47.632c-40.614-.407-102.702 37.861-84.463 55.238 18.238 17.377 185.814 27.491 170.704-7.628z" fill="#0069FF"/>
    <path d="M704.779 444.298c-7.647 6.221-11.177 13.147-7.487 19.575 7.577 13.199 68.864 35.347 109.946 39.382-44.112 9.122-134.405.384-147.517-12.109-12.794-12.189 13.939-34.659 45.058-46.848" fill="#000C2A"/>
    <path d="M744.15 435.908c73.963 2.642 82.804 50.22 82.804 50.22.547 4.376.087 8.201-2.552 11.293 6.016-3.508 8.379-7.043 6.928-14.575 0 0-9.092-46.145-87.146-46.938z" fill="#fff"/>
    <path clip-rule="evenodd" d="M652.875 108.862c.146 3.421-1.03 6.403-1.44 7.331q1.185-.982 2.449-1.968a58 58 0 0 1 1.566-3.711 231 231 0 0 1 30.662 23.857c-5.281 8.395-12.152 14.921-18.98 18.087-25.698 11.913-38.224 1.871-38.854 0-.51-1.519 1.039-15 17.035-30.748.041-2.899-.028-5.826-.093-8.558-.082-3.431-.156-6.552.006-8.918a231 231 0 0 1 7.649 4.628" fill="#000C2A" fill-rule="evenodd"/>
    <path d="M685.881 55.825 668.134 20c-.771 10.057 1.285 21.969 4.68 32.118-6.423 3.23-14.352 7.12-19.215 13.25l28.392-4.991s22.655 22.023 13.764 41.294c.643 24.005 13.802-12.315 13.802-12.315z" fill="#000C2A"/>
    <path d="M684.78 53.843s30.245 38.78 0 59.83c-30.246 21.051-30.775 40.077-32.21 44.048.661 1.963 13.802 12.498 40.762 0 26.961-12.499 54.564-74.954-8.552-103.878" fill="url(#u)"/>
    <path d="M668.394 163.722c6.015-.174 13.566-1.764 22.706-6.001 34.216-18.005 35.392-82.269-6.139-103.638-.118-.158-.182-.24-.182-.24 63.116 28.924 35.513 91.379 8.552 103.878-10.307 4.778-18.595 6.19-24.937 6.001" fill="#fff"/>
    <path d="M679.73 128.839c-.815.3-1.605-.38-1.478-1.24 3.909-26.494 16.48-43.523 18.549-33.622 2.115 10.124 8.242.523 8.242.523 0 23.253-19.347 32.149-25.313 34.339" fill="#000C2A"/>
    <path d="M686.179 100.841c4.249-5.575 8.168-8.913 9.108-6.093 2.15 6.453 2.644 6.602 4.292 7.101a10.6 10.6 0 0 1 1.845.709c2.586 1.293-4.825 15.524-14.763 22.996 7.911-4.612 18.38-13.949 18.38-31.054 0 0-6.126 9.601-8.242-.524-1.214-5.81-6.045-2.345-10.62 6.865" fill="#fff"/>
    <path d="M738.24 113.714c23.757 7.412-19.927 6.669-39.065 21.96 0 0 15.309-29.372 39.065-21.96" fill="#000C2A"/>
    <path d="M742.257 119.57c4.351-1.645 4.354-3.244-4.017-5.856-7.805-2.435-14.698-.9-20.435 2.259 5.264-2.368 11.386-3.27 18.203-1.143 6.488 2.024 7.946 3.44 6.249 4.74" fill="#fff"/>
  </g>
  <defs>
    <linearGradient gradientUnits="userSpaceOnUse" id="b" x1="0" x2="673" y1="622.5" y2="-228.5">
      <stop stop-color="#0069FF"/>
      <stop offset="1" stop-color="#E88AFF"/>
    </linearGradient>
    <linearGradient gradientUnits="userSpaceOnUse" id="c" x1="604.506" x2="604.506" y1="27.712" y2="403.344">
      <stop stop-color="#C6E3FF"/>
      <stop offset=".06" stop-color="#F4F9FF"/>
      <stop offset="1" stop-color="#C6E3FF" stop-opacity="0"/>
    </linearGradient>
    <linearGradient gradientUnits="userSpaceOnUse" id="d" x1="1198.99" x2="-75.675" y1="-35" y2="43.263">
      <stop stop-color="#F4F9FF"/>
      <stop offset="1" stop-color="#C6E3FF" stop-opacity="0"/>
    </linearGradient>
    <linearGradient gradientUnits="userSpaceOnUse" id="f" x1="823.816" x2="811.388" y1="256.307" y2="252.876">
      <stop stop-color="#fff"/>
      <stop offset="1" stop-color="#fff" stop-opacity="0"/>
    </linearGradient>
    <linearGradient gradientUnits="userSpaceOnUse" id="g" x1="761.03" x2="744.597" y1="364.065" y2="343.795">
      <stop stop-color="#fff"/>
      <stop offset="1" stop-color="#fff" stop-opacity="0"/>
    </linearGradient>
    <linearGradient gradientUnits="userSpaceOnUse" id="h" x1="634.566" x2="395.816" y1="187.265" y2="468.407">
      <stop stop-color="#F9DFFF"/>
      <stop offset=".496" stop-color="#C6E3FF"/>
      <stop offset="1" stop-color="#0069FF"/>
    </linearGradient>
    <linearGradient gradientUnits="userSpaceOnUse" id="j" x1="743" x2="528.367" y1="357.5" y2="537.477">
      <stop stop-color="#C6E3FF"/>
      <stop offset="1" stop-color="#C6E3FF" stop-opacity="0"/>
    </linearGradient>
    <linearGradient gradientUnits="userSpaceOnUse" id="k" x1="208.664" x2="653.599" y1="534.642" y2="226.745">
      <stop offset=".099" stop-color="#F0B5FF"/>
      <stop offset="1" stop-color="#1433D6"/>
    </linearGradient>
    <linearGradient gradientUnits="userSpaceOnUse" id="l" x1="678.934" x2="726.698" y1="222.104" y2="277.827">
      <stop offset=".01" stop-color="#fff" stop-opacity="0"/>
      <stop offset="1" stop-color="#fff"/>
    </linearGradient>
    <linearGradient gradientUnits="userSpaceOnUse" id="m" x1="678.931" x2="698.832" y1="289.769" y2="321.611">
      <stop stop-color="#fff" stop-opacity="0"/>
      <stop offset="1" stop-color="#fff"/>
    </linearGradient>
    <linearGradient gradientUnits="userSpaceOnUse" id="n" x1="571.406" x2="435.582" y1="469.611" y2="100.832">
      <stop offset=".552" stop-color="#fff" stop-opacity="0"/>
      <stop offset=".99" stop-color="#fff"/>
    </linearGradient>
    <linearGradient gradientUnits="userSpaceOnUse" id="o" x1="533.38" x2="537.01" y1="483.018" y2="531.046">
      <stop stop-color="#F9DFFF"/>
      <stop offset=".978" stop-color="#0069FF"/>
    </linearGradient>
    <linearGradient gradientUnits="userSpaceOnUse" id="p" x1="344.501" x2="425.001" y1="469.5" y2="539.5">
      <stop stop-color="#000C2A"/>
      <stop offset="1" stop-color="#002990"/>
    </linearGradient>
    <linearGradient gradientUnits="userSpaceOnUse" id="q" x1="679.21" x2="608.126" y1="-3.668" y2="135.737">
      <stop stop-color="#fff" stop-opacity="0"/>
      <stop offset=".48" stop-color="#fff" stop-opacity=".2"/>
      <stop offset="1" stop-color="#fff" stop-opacity="0"/>
    </linearGradient>
    <linearGradient gradientUnits="userSpaceOnUse" id="r" x1="679.21" x2="608.126" y1="-3.668" y2="135.737">
      <stop stop-color="#fff" stop-opacity="0"/>
      <stop offset=".48" stop-color="#fff" stop-opacity=".2"/>
      <stop offset="1" stop-color="#fff" stop-opacity="0"/>
    </linearGradient>
    <linearGradient gradientUnits="userSpaceOnUse" id="s" x1="679.21" x2="608.126" y1="-3.668" y2="135.737">
      <stop stop-color="#fff" stop-opacity="0"/>
      <stop offset=".48" stop-color="#fff" stop-opacity=".2"/>
      <stop offset="1" stop-color="#fff" stop-opacity="0"/>
    </linearGradient>
    <linearGradient gradientUnits="userSpaceOnUse" id="t" x1="679.21" x2="608.126" y1="-3.668" y2="135.737">
      <stop stop-color="#fff" stop-opacity="0"/>
      <stop offset=".48" stop-color="#fff" stop-opacity=".2"/>
      <stop offset="1" stop-color="#fff" stop-opacity="0"/>
    </linearGradient>
    <linearGradient gradientUnits="userSpaceOnUse" id="u" x1="749.954" x2="727.218" y1="124.313" y2="142.932">
      <stop stop-color="#F9DFFF"/>
      <stop offset=".978" stop-color="#0069FF"/>
    </linearGradient>
    <radialGradient cx="0" cy="0" gradientTransform="matrix(-.07967 268.49999 -459.22298 -.13625 529.08 404.997)" gradientUnits="userSpaceOnUse" id="e" r="1">
      <stop stop-color="#1433D6"/>
      <stop offset="1" stop-color="#0069FF" stop-opacity="0"/>
    </radialGradient>
    <radialGradient cx="0" cy="0" gradientTransform="rotate(112.201 285.35 269.76)scale(281.966 195.303)" gradientUnits="userSpaceOnUse" id="i" r="1">
      <stop stop-color="#fff"/>
      <stop offset="1" stop-color="#fff" stop-opacity="0"/>
    </radialGradient>
    <clipPath id="a">
      <path d="M0 0h1056v608H0z" fill="#fff"/>
    </clipPath>
  </defs>
</svg>