<?xml version="1.0" encoding="utf-8"?>
<svg xmlns="http://www.w3.org/2000/svg" fill="none" height="608" width="1056">
  <g clip-path="url(#a)">
    <path d="M0 0h1056v608H0z" fill="url(#b)"/>
    <path d="M32 646.202c-235.678 47.099 21 263.499 651-101s948-161 916 290.5H-353v-811c27 321-45.5 678.6 226.5 321 340-447 799 172.499 158.5 300.5" fill="url(#c)" opacity=".2"/>
    <path d="M252.032 54.568C-49.149 195.862 162.754-37.594 63.909-53.222L1312.15-192.598l31.79 284.73c-48.38-27.802-381.82-116.85-714.359 135.61S484.872-54.665 252.032 54.568" fill="url(#d)" opacity=".2"/>
    <path d="M661.022 431.613C539.655 306.5 787.283 205.646 849.694 229.099c0 0-8.571-25.831 10.563-43.321 29.587-27.039 67.738-15.69 67.738-15.69s-75.448-109.21 94.865-169.08c236.98-69.074 165.39 138.819 140.42 156.976C1592.45 52.24 1626.93 506.5 1265.15 506.5c-164.35 3.4-482.761 50.226-604.128-74.887" fill="url(#e)"/>
    <path d="M354.001 431.613C475.368 306.5 227.741 205.646 165.329 229.099c0 0 8.571-25.831-10.563-43.321-29.587-27.039-67.737-15.69-67.737-15.69S162.477 60.878-7.839 1.008C-244.813-68.066-173.225 139.827-148.26 157.984-577.428 52.24-611.903 506.5-250.131 506.5c164.35 3.4 482.765 50.226 604.132-74.887" fill="url(#f)"/>
    <path d="M459.287 96.948s-2.11-39.03 41.4-47.948l-17.588 358.004-1.978-34.669-21.859-275.387z" fill="#fff"/>
    <path d="M505.501 188.5c-49.5-64-46.189-92.01-46.189-92.01l1.803 276.397 2.923 12.566c6.31 27.049 19.198 52.058 37.544 72.763l16.128 18.197-8.259-296.069z" fill="#C6E3FF"/>
    <path d="M625.005 54.48C545.942 78.242 510.957 100 505.002 200l4.504 352.214-8.962-8.333c4.328-65.456-19.954-120.858 43.598-137.664z" fill="#fff"/>
    <path d="m516.455 561.13-77.469-132.207-50.498-372.852 117.469 132.175z" fill="#fff"/>
    <path d="M516.453 561.129 404.732 433.755 354.234 60.873l151.72 127.373z" fill="#fff"/>
    <path d="M516.453 561.124 361.357 441.709 310.859 68.857 505.955 188.24zm29.908.051 140.584-94.808 60-385.556-215.398 98.368z" fill="#fff"/>
    <path d="m537.96 564.087 195.468-83.556 60-380.387-272.065 87.674z" fill="#fff"/>
    <path d="m535.153 186.295 284.672-66.06-70 370.356-203.838 66.06-24.624-188.352z" fill="#fff"/>
    <path d="m533.968 188.957 290.401-48.845 1.763 3.685-6.424 1.715 7.321-.786 3.557 5.542-3.668.85 4.565.079 4.487 4.645L802 512.878l-263.323 44.137-21.347-188.752zm-65.731 372.218-160.584-94.808-40-385.556 215.398 98.368z" fill="#fff"/>
    <path d="M485.586 558.681 278.201 478.24l-50-380.387 264.85 83.572z" fill="#fff"/>
    <path d="m494.789 182.99-299.464-62.754 50 370.356 219.451 64.233 43.802-189.832z" fill="#fff"/>
    <path d="m491.224 189.164-301.382-49.53-1.763 3.684L218.504 149l-31-4-3 5.5 81 17-82.5-12.5-4.763 5.363 46.205 352.036 251.088 44.137 21.347-188.752z" fill="#fff"/>
    <path d="m837.5 164.5-288 27.5-5 4.5 298-29z" fill="#000C2A"/>
    <path d="M535.777 197.169 842.5 167.5l-38.989 362.419L538.499 564.5z" fill="#0069FF"/>
    <path d="M809.075 465.776 802.999 530l-264.502 34.5-2.571-347.077 8.072 8.577c5.481 201.794 129.449 360.377 265.077 239.776" fill="#1433D6"/>
    <path d="m658.5 549-120.002 15.5-1.107-149.498L542.499 393c0 29.5 48.501 153.5 116.001 156" fill="#000C2A"/>
    <path d="M555.445 195.266 832.499 177.5l-20.071 269.524L842.499 167.5z" fill="#fff"/>
    <path d="m177 165.5 296 27 5 4.5-305-29.5z" fill="#000C2A"/>
    <path d="M479.75 197.22 173.002 167.5l39.882 366 268.296 30.589z" fill="#1433D6"/>
    <path d="m479.724 197.217.027.002 1.43 366.87-268.296-30.798L175.504 190c31.282 105.246 167.175 237.41 304.22 7.217" fill="#000C2A"/>
    <path d="m486.002 191-1.018 370.352c0 14.348 53.908 15.261 53.908 0l-.177-370.852c-16.002 5.803-22.713 11-52.713.5" fill="#1433D6"/>
    <path d="M538.831 442.424c-.479 6.137-.774 14.781-.833 26.576-.337 67.395-48.4 44.827-52.528-85.82l-.49 178.172c0 14.348 53.908 15.261 53.908 0z" fill="#000C2A"/>
    <path clip-rule="evenodd" d="M478.191 193.299 485 187.5l1.166.704c3.577 1.204 13.943 4.294 26.175 4.296 11.853.003 21.957-2.894 25.828-4.168L540 187.5l4.915 5.411L545 564c-.172 5.718-6.695 8.609-12.088 10.999l-.728.324c-5.8 2.583-13.515 3.964-21.804 3.715s-15.906-2.091-21.541-5.018c-5.357-2.784-9.339-7.02-9.339-10.02zm7.518 370.385c1.422 1.34 3.534 2.813 6.093 4.143 4.598 2.388 11.232 4.072 18.786 4.299s14.277-1.055 19.01-3.163c3.77-1.679 6.871-3.547 8.202-5.075v-48.331c-5.934 1.531-17.512 2.346-25.677 2.196-8.106-.15-20.431-.468-26.293-2.147zM537.8 276.557v227.532c-5.022 1.285-18.042 2.952-25.455 2.816-7.336-.135-21.397-1.353-26.486-2.762l.575-227.375c6.071 1.538 17.852 1.84 25.689 1.984 8.165.151 19.743-.664 25.677-2.195m0-83.99c-4.116 4.619-13.965 7.87-25.459 7.868-11.723-.003-21.733-3.389-25.694-8.157l-.114 45.038c5.563 1.334 18.778 2.459 25.812 2.589 7.413.136 20.433-1.531 25.455-2.816zm-51.337 72.732.041-16.513c6.092 1.522 17.812 1.823 25.619 1.966 8.165.151 19.743-.664 25.677-2.195v16.532c-5.022 1.285-18.042 2.952-25.455 2.816-7.064-.13-20.362-1.264-25.882-2.606" fill="#000C2A" fill-rule="evenodd"/>
    <path d="M478.191 193.299 485 187.5c3.577 1.204 15.109 4.998 27.341 5 11.853.003 23.788-3.726 27.659-5l4.915 5.411L545 564l-7.085-367.089L535 193.5c-3.871 1.274-11.501 3.411-25.001 3.411S488.577 190.205 485 189z" fill="#fff"/>
    <path d="m698.084 407.396.99 35.227c59.489-1.663 104.194-60.479 82.938-122.373-9.408-26.985-31.69-48.206-59.17-55.881-62.849-17.684-119.119 30.381-117.422 89.834l35.262-.99c-1.061-37.172 35.12-67.164 74.909-54.007 14.642 4.775 26.667 16.128 32.255 30.452 15.385 38.94-12.343 76.713-49.797 77.738z" fill="#B1E490"/>
    <path d="m662.757 407.799 35.049-.991-.99-35.014-35.05.991z" fill="#B1E490"/>
    <path d="m663.531 434.815-27.057.778-.742-27.021 27.056-.778zm-50.503-25.594 22.494-.637-.636-22.494-22.494.637z" fill="#B1E490"/>
    <path d="M879.421 271.906c47.506-13.797 147.019-26.713 218.919 3.683 71.89 30.396 90.33 58.058 169.7 42.119 76.44-15.346 134.52-6.788 270.91 25.098 38.75 9.063-861.95 0-861.95 0s107.5.994 202.421-70.907z" fill="url(#g)"/>
    <path d="m814.22 436.868 537.26 2.188c-143.1-102.062-136.68-30.295-136.68-30.295-107.84-101.824-232.164-64.188-232.164-64.188C839.998 135 668.998 373.5 814.22 436.868" fill="url(#h)"/>
    <path d="m814.22 436.868 537.26 2.188c-143.1-102.062-136.68-30.295-136.68-30.295-107.84-101.824-232.164-64.188-232.164-64.188C839.998 135 668.998 373.5 814.22 436.868" fill="url(#i)"/>
    <path d="M1375.57 447.735c87.97-163.265-37.28-163.763-119.66-135.977-99.33 33.512-163.87 85.347-163.87 85.347 2.1-30.608-29.47-23.825-40.83-20.251-37.57 11.831-86.72 44.39-86.72 44.39 23.573-57.494-41.493-43.162-137.659 5.323-80.969 40.816-92.175 52.654-92.175 52.654h623.294l17.62-31.494z" fill="url(#j)"/>
    <path d="M602 514c108-6.5 87.186-63.915 150.582-23.009 30.535 19.701 50.993-31.454 102.114-44.66C937.399 424.976 957 513.291 957 513.291z" fill="url(#k)"/>
    <path d="M793 530.613s39.041-5.71 98.612-28.113c47.703-17.944 66.647-40.974 97.315-29.314 55.083 20.944 65.793-35.731 151.563-71.916 210.63-88.839 307.73 129.343 307.73 129.343z" fill="url(#l)"/>
    <path d="M-495 484.125h984.73S243 464 222 434c-58.5-56.262-97.666-59.115-150.789-17.907 0 0 49.633-117.42-52.448-69.595 0 0-11.004-145.912-246.6 31.24 0 0-16.88-96.946-267.163 106.394z" fill="url(#m)"/>
    <path d="M321.557 539.579H-276c24.324-19.096 158.973-123.385 192.322-119.439 24.912 2.952 10.174 41.617 9.924 42.28 67.081-62.989 67.736-22.808 67.736-22.808 64.041-66.588 123.658-61.398 148.409-36.573 24.147 24.22-5.5 73.825-5.5 73.825 50.613-25.451 37.62 7.479 37.377 8.105.868-.449 72.904-37.597 96.735-15.512 15.43 14.305 3.084 34.623-7.679 47.293a119 119 0 0 1-8.032 8.547c-2.068 2.003-3.401 3.137-3.401 3.137 23.779-5.367 55.722 5.587 69.666 11.145" fill="url(#n)"/>
    <path d="M-114.05 552.297c84.522 2.422 322.693.515 338.396.942 8.076.221-18.405-22.667-41.624-31.84-21.902-8.651-40.579-7.024-68.399 7.45-18.022 9.379-22.866 2.768-62.687-18.412-149.895-79.707-252.807 39.364-165.686 41.86" fill="url(#o)"/>
    <path d="m537.004 167.597-5.411-15.937-5.412-15.937 2.655 16.615 2.654 16.614a31.43 31.43 0 0 1-4.116 21.222 31.44 31.44 0 0 1-16.836 13.561l-15.935 5.41-15.936 5.409 16.614-2.652 16.613-2.652a31.43 31.43 0 0 1 21.222 4.119 31.46 31.46 0 0 1 13.564 16.838l5.411 15.937 5.411 15.937-2.654-16.615-2.654-16.614a31.42 31.42 0 0 1 4.116-21.222 31.44 31.44 0 0 1 16.835-13.562l15.936-5.409 15.936-5.41-16.614 2.653-16.614 2.652a31.43 31.43 0 0 1-21.221-4.119 31.46 31.46 0 0 1-13.564-16.838m77.5 68.468 1.064-1.566 1.065-1.565.517 1.874.516 1.874a21.5 21.5 0 0 0 3.171 6.596 20.6 20.6 0 0 0 5.235 5.112l1.609 1.083 1.61 1.083-1.83.513-1.83.513a21.4 21.4 0 0 0-6.593 3.151 21.4 21.4 0 0 0-5.131 5.219l-1.123 1.635-1.123 1.636-.517-1.875-.516-1.873a21.5 21.5 0 0 0-3.171-6.597 21 21 0 0 0-5.235-5.112l-1.609-1.083-1.61-1.083 1.892-.54 1.892-.54a21 21 0 0 0 6.589-3.194 21.4 21.4 0 0 0 5.108-5.238z" fill="#fff"/>
    <path d="M1260.15 760.478 973.307-58.197l-14.712-6.41 25.002 705.736z" fill="url(#p)"/>
    <path d="m908.22 604.716 34.177-673.53-42.116-18.351-187.385 607.932z" fill="url(#q)"/>
    <path d="M702.46-176.211 255.019 322.587 81 247.847 624.913-210z" fill="url(#r)"/>
    <path d="m492.163 424.588 308.532-557.996-29.674-12.929-389.726 522.231z" fill="url(#s)"/>
    <circle cx="513.5" cy="304.5" fill="#80D34A" r="15.5"/>
  </g>
  <defs>
    <linearGradient gradientUnits="userSpaceOnUse" id="b" x1="0" x2="673" y1="622.5" y2="-228.5">
      <stop stop-color="#0069FF"/>
      <stop offset="1" stop-color="#80D34A"/>
    </linearGradient>
    <linearGradient gradientUnits="userSpaceOnUse" id="c" x1="140" x2="285" y1="608" y2="-43.5">
      <stop offset=".17" stop-color="#fff"/>
      <stop offset="1" stop-color="#fff" stop-opacity="0"/>
    </linearGradient>
    <linearGradient gradientUnits="userSpaceOnUse" id="d" x1="594.929" x2="739.536" y1="169.728" y2="-346.507">
      <stop stop-color="#fff"/>
      <stop offset="1" stop-color="#fff" stop-opacity="0"/>
    </linearGradient>
    <linearGradient gradientUnits="userSpaceOnUse" id="e" x1="805.155" x2="914.134" y1="153.5" y2="478.694">
      <stop stop-color="#fff"/>
      <stop offset=".497" stop-color="#C6E3FF"/>
      <stop offset="1" stop-color="#80D34A" stop-opacity="0"/>
    </linearGradient>
    <linearGradient gradientUnits="userSpaceOnUse" id="f" x1="209.868" x2="84.406" y1="153.5" y2="481.501">
      <stop stop-color="#fff"/>
      <stop offset=".497" stop-color="#C6E3FF"/>
      <stop offset="1" stop-color="#80D34A" stop-opacity="0"/>
    </linearGradient>
    <linearGradient gradientUnits="userSpaceOnUse" id="g" x1="1067.53" x2="1022.5" y1="202.434" y2="625">
      <stop stop-color="#fff"/>
      <stop offset=".497" stop-color="#C6E3FF"/>
      <stop offset="1" stop-color="#80D34A"/>
    </linearGradient>
    <linearGradient gradientUnits="userSpaceOnUse" id="h" x1="1093.65" x2="1143.15" y1="82.999" y2="531">
      <stop stop-color="#F4F9FF"/>
      <stop offset=".497" stop-color="#C6E3FF"/>
      <stop offset="1" stop-color="#0069FF"/>
    </linearGradient>
    <linearGradient gradientUnits="userSpaceOnUse" id="i" x1="1093.65" x2="1143.15" y1="82.999" y2="531">
      <stop stop-color="#fff"/>
      <stop offset=".497" stop-color="#C6E3FF"/>
      <stop offset="1" stop-color="#80D34A"/>
    </linearGradient>
    <linearGradient gradientUnits="userSpaceOnUse" id="j" x1="784.156" x2="948.156" y1="389" y2="738.5">
      <stop stop-color="#fff"/>
      <stop offset=".497" stop-color="#C6E3FF"/>
      <stop offset="1" stop-color="#80D34A"/>
    </linearGradient>
    <linearGradient gradientUnits="userSpaceOnUse" id="k" x1="669.055" x2="639.511" y1="443.472" y2="566.734">
      <stop stop-color="#fff"/>
      <stop offset=".497" stop-color="#C6E3FF"/>
      <stop offset="1" stop-color="#80D34A"/>
    </linearGradient>
    <linearGradient gradientUnits="userSpaceOnUse" id="l" x1="783.268" x2="1014.77" y1="446.5" y2="850">
      <stop stop-color="#fff"/>
      <stop offset=".497" stop-color="#C6E3FF"/>
      <stop offset="1" stop-color="#80D34A"/>
    </linearGradient>
    <linearGradient gradientUnits="userSpaceOnUse" id="m" x1="-342.589" x2="-414.965" y1="227.882" y2="489.133">
      <stop stop-color="#fff"/>
      <stop offset=".5" stop-color="#C6E3FF"/>
      <stop offset="1" stop-color="#80D34A"/>
    </linearGradient>
    <linearGradient gradientUnits="userSpaceOnUse" id="n" x1="-171.678" x2="-226.609" y1="369.022" y2="543.535">
      <stop stop-color="#fff"/>
      <stop offset=".497" stop-color="#C6E3FF"/>
      <stop offset="1" stop-color="#80D34A"/>
    </linearGradient>
    <linearGradient gradientUnits="userSpaceOnUse" id="o" x1="-94.64" x2="-108.454" y1="483.372" y2="583.262">
      <stop stop-color="#fff"/>
      <stop offset=".497" stop-color="#C6E3FF"/>
      <stop offset="1" stop-color="#80D34A"/>
    </linearGradient>
    <linearGradient gradientUnits="userSpaceOnUse" id="p" x1="679.21" x2="608.126" y1="-3.668" y2="135.737">
      <stop stop-color="#fff" stop-opacity="0"/>
      <stop offset=".48" stop-color="#fff" stop-opacity=".2"/>
      <stop offset="1" stop-color="#fff" stop-opacity="0"/>
    </linearGradient>
    <linearGradient gradientUnits="userSpaceOnUse" id="q" x1="679.21" x2="608.126" y1="-3.668" y2="135.737">
      <stop stop-color="#fff" stop-opacity="0"/>
      <stop offset=".48" stop-color="#fff" stop-opacity=".2"/>
      <stop offset="1" stop-color="#fff" stop-opacity="0"/>
    </linearGradient>
    <linearGradient gradientUnits="userSpaceOnUse" id="r" x1="679.21" x2="608.126" y1="-3.668" y2="135.737">
      <stop stop-color="#fff" stop-opacity="0"/>
      <stop offset=".48" stop-color="#fff" stop-opacity=".2"/>
      <stop offset="1" stop-color="#fff" stop-opacity="0"/>
    </linearGradient>
    <linearGradient gradientUnits="userSpaceOnUse" id="s" x1="679.21" x2="608.126" y1="-3.668" y2="135.737">
      <stop stop-color="#fff" stop-opacity="0"/>
      <stop offset=".48" stop-color="#fff" stop-opacity=".2"/>
      <stop offset="1" stop-color="#fff" stop-opacity="0"/>
    </linearGradient>
    <clipPath id="a">
      <path d="M0 0h1056v608H0z" fill="#fff"/>
    </clipPath>
  </defs>
</svg>